<?xml version="1.0" encoding="UTF-8"?>
<svg viewBox="0 0 256 256" xmlns="http://www.w3.org/2000/svg">
 <defs>
  <filter id="f">
   <feGaussianBlur stdDeviation="0.506985"/>
  </filter>
  <filter id="d" x="-.17396" y="-.047056" width="1.3479" height="1.0941">
   <feGaussianBlur stdDeviation="0.846036"/>
  </filter>
  <filter id="e" x="-.35227" y="-.24484" width="1.7045" height="1.4897">
   <feGaussianBlur stdDeviation="1.765483"/>
  </filter>
 </defs>
 <g fill-rule="evenodd">
  <g transform="rotate(-19.702 52.211 63.677)">
   <path d="m44.904 93.22c-13.233-9.6449-18.207-28.805-12.697-45.403 1.2391-4.9961 3.1586-10.034 5.7936-14.389 1.6063-1.1896 2.5406-0.25108 3.632 0.97013 1.0913 1.2212 2.5744 3.1011 2.9723 4.5443 4.143 9.675 10.616 18.368 18.959 23.995 5.3137 3.9917 10.309 9.9034 10.596 16.558-0.16405 3.434-0.13311 5.3638-0.83115 7.5936-0.71665 2.2895-1.408 4.9195-5.7897 8.0276-3.4226 2.5679-9.8964 2.4276-13.275 1.9841-3.3783-0.44355-6.5928-1.9995-9.3605-3.8812z" stroke-width=".536"/>
   <path d="m56.086 62.74c-3.0071 4.7222-1.3736 14.508 1.6047 19.279 4.2486 6.8056 14.788 0.17757 16.047-3.8558 0.66836-2.1413-5.2562-16.187-17.652-15.423z" filter="url(#e)"/>
   <path d="m30.215 60.195c-0.007938 5.7603 2.2461 15.341 4.5663 19.983 6.4464 12.897 15.174 15.429 21.286 16.931 1.4094 0.34634-8.3216-9.3151-10.808-11.465-3.5401-3.0612-6.0435-5.0422-7.8347-9.3244-4.125-9.8615-6.9545-9.3174 0.84967-42.61 0.43679-1.8634-5.718 8.0516-8.059 26.485z" filter="url(#f)"/>
   <path d="m44.256 58.267c-0.007938 5.7602 3.3921 10.17 5.1681 15.003 2.5753 7.0088 4.944 9.3241 10.655 12.432 1.2193 0.66373 17.646-0.33022 10.454-9.6982-2.9572-3.8524-5.7583-9.37-12.047-12.859-9.6221-5.3379-17.411-23.492-19.009-29.757-0.9487-3.719 4.5121 19.78 4.7788 24.879z" fill-opacity=".131" filter="url(#d)"/>
  </g>
  <path d="m233.65 218.9c3.0586-2.7891-30.452-37.186-70.162-71.09s-86.231-66.043-86.231-66.043c-2.4618 5.8304-3.3975 6.7252-11.439 8.8812 0 0 40.373 39.183 81.989 71.832s83.481 58.573 85.842 56.42z" stroke-width="0"/>
 </g>
</svg>
